<?xml version="1.0" encoding="UTF-8" standalone="no"?>
<!-- Created with Inkscape (http://www.inkscape.org/) -->

<svg
   width="27.310238mm"
   height="21.70183mm"
   viewBox="0 0 27.310238 20.70183"
   version="1.1"
   id="svg5"
   xml:space="preserve"
   xmlns="http://www.w3.org/2000/svg"
   xmlns:svg="http://www.w3.org/2000/svg"><defs
     id="defs2" /><g
     id="layer1"
     transform="translate(0.97046486,-268.87185) rotate(90,11.5,280.5) translate(-1,-2)"><path
       d="m 11.730192,289.46448 c -1.746242,-3.175 -3.5454137,-3.175 -5.2916661,-10e-6 -3.1749935,-1.74625 -3.1749891,-3.54541 1.67e-5,-5.29167 0.075193,-3.62275 -1.4829278,-4.52233 -4.5827262,-2.64582 -1.87650412,-3.0998 -0.97692262,-4.65792 2.645834,-4.58272 1.7462516,3.175 3.5454151,3.175 5.291671,0 -3.1750159,-1.74625 -3.1750008,-3.54542 -7.6e-6,-5.29167 3.0997972,1.87651 4.6579302,0.97693 4.5827252,-2.64583 3.622746,-0.0752 4.522336,1.48292 2.645833,4.58272 -3.622765,-0.0752 -4.522346,1.48291 -2.645842,4.58271 3.099798,-1.8765 4.657926,-0.97692 4.58273,2.64584 -3.174996,1.74626 -3.175005,3.54541 -1.2e-5,5.29166 3.174998,1.74624 3.175014,3.54542 1.8e-5,5.29167 -3.09982,-1.87651 -4.657935,-0.97692 -4.582731,2.64582 -3.62275,0.0752 -4.5223296,-1.48291 -2.645843,-4.5827"
       stroke="#000000"
       stroke-weight="0.1"
       fill="#bf927e"
       id="path1288"
       style="fill:#000000;fill-opacity:1;stroke-width:0.264583" />
    </g>
</svg>

